<svg xmlns="http://www.w3.org/2000/svg" version="1.1" xmlns:xlink="http://www.w3.org/1999/xlink" width="1000" height="1000"><g clip-path="url(#SvgjsClipPath1060)"><rect width="1000" height="1000" fill="#42aa4a"></rect><g transform="matrix(0.6430868167202572,0,0,0.6430868167202572,100,100)"><svg xmlns="http://www.w3.org/2000/svg" version="1.1" xmlns:xlink="http://www.w3.org/1999/xlink" width="1244" height="1244"><svg width="1244" height="1244" viewBox="0 0 1244 1244" fill="none" xmlns="http://www.w3.org/2000/svg">
<path d="M424.864 124.305C423.324 124.996 421.013 127.989 419.583 130.866C417.163 135.816 417.053 137.082 417.383 156.42C417.713 176.333 417.823 176.794 420.463 179.786C423.324 183.009 440.706 192.333 446.317 193.714C450.167 194.635 452.588 196.362 451.817 197.628C451.487 198.203 448.187 197.282 444.336 195.671C429.264 189.225 414.632 183.815 408.582 182.664C396.04 180.017 389.659 184.391 389.659 195.671C389.659 202.808 391.639 207.757 395.16 209.714C398.13 211.325 420.463 220.189 463.259 236.879C474.371 241.138 484.602 245.857 486.032 247.238C487.572 248.735 488.673 251.152 488.673 253.109C488.673 255.871 488.232 256.332 485.482 256.332C477.011 256.332 451.707 248.39 400.66 229.973C380.198 222.491 376.237 221.8 372.166 224.793C369.966 226.404 369.746 227.44 370.186 231.239C370.846 236.188 402.421 305.137 406.821 311.237C408.361 313.309 410.452 315.036 411.552 315.036C412.652 315.036 417.163 316.302 421.673 317.914C447.197 327.122 482.292 337.482 512.876 344.733C545 352.445 552.371 353.942 569.534 355.899C578.665 357.05 586.256 358.086 586.476 358.316C586.806 358.661 585.816 360.158 584.276 361.769C581.855 364.186 579.875 364.762 570.524 365.798C539.5 369.366 488.342 363.265 437.846 350.028C421.123 345.654 416.943 345.309 414.962 347.841C412.542 350.949 414.522 360.158 420.573 373.395C425.524 384.215 427.284 386.977 434.655 394.459C439.496 399.409 445.767 404.358 449.177 406.085C469.97 416.675 474.921 418.862 485.152 421.624C491.313 423.351 496.264 424.962 496.044 425.077C495.603 425.653 462.489 422.43 457.318 421.394C455.228 421.049 453.468 420.934 453.468 421.279C453.468 421.624 455.118 427.38 457.208 433.941C461.829 448.674 466.339 458.343 473.49 468.357C483.722 482.861 490.543 487.58 519.477 500.127C551.601 514.054 591.207 527.407 597.478 526.486C601.108 526.025 601.658 526.256 577.235 518.198C554.682 510.716 532.569 501.853 513.426 492.299C501.544 486.429 499.564 485.048 494.063 478.372C490.653 474.343 485.482 467.321 482.512 462.947C476.791 454.545 465.569 435.897 465.569 434.746C465.569 434.401 476.351 434.056 489.663 433.941C512.436 433.825 529.048 432.329 532.679 430.027C533.889 429.336 533.449 428.991 531.028 428.991C528.498 428.991 528.058 428.646 529.378 427.84C530.258 427.264 530.698 426.689 530.368 426.689C528.388 426.689 510.125 422.775 502.424 420.818C484.052 415.984 475.691 412.761 449.067 399.869C444.336 397.567 435.315 387.323 431.135 379.495C426.954 371.438 420.463 355.438 420.463 352.791C420.463 351.525 424.094 352.1 436.745 355.553C476.791 366.373 510.566 371.438 542.03 371.438C560.842 371.438 577.455 370.057 584.056 367.87C588.126 366.488 593.187 360.848 593.187 357.625C593.187 355.438 591.867 355.093 575.034 353.597C568.654 353.021 522.557 340.935 433.885 316.878C425.744 314.691 417.933 312.043 416.503 311.007C409.682 306.403 400.11 287.065 388.999 255.526C383.168 238.951 382.178 235.152 383.058 232.62C383.718 231.009 384.818 229.973 385.588 230.203C392.629 233.311 443.346 250.346 456.108 254.03C491.753 264.274 498.574 263.929 498.574 251.613C498.574 247.929 498.024 246.893 494.503 244.591C485.482 238.836 467.77 231.469 430.915 218.232C415.182 212.592 401.1 207.297 399.67 206.606C394.61 203.844 393.949 195.441 398.46 190.721C400 189.11 401.541 188.65 404.731 189.11C412.762 190.376 425.524 194.405 439.496 200.16C454.678 206.376 456.768 206.376 456.768 200.045C456.768 195.095 450.937 190.376 439.496 186.117C427.834 181.858 428.604 182.894 425.304 163.902C423.104 150.204 423.654 132.938 426.404 129.945C429.044 127.183 460.839 139.845 484.272 152.967C510.786 167.93 545.55 190.031 562.383 202.577C589.666 222.951 631.032 263.468 657.216 295.468C676.688 319.295 703.422 358.431 709.033 371.438C710.573 374.891 715.524 386.056 720.034 396.186C750.289 463.408 766.681 511.522 776.362 561.363C780.543 582.543 785.713 622.139 785.713 631.808C785.603 642.052 784.283 640.326 782.523 627.549C781.753 622.484 780.543 615.693 779.663 612.585C778.782 609.362 777.352 603.722 776.362 599.924C775.372 596.125 772.842 588.068 770.641 582.082C764.04 563.78 738.297 508.875 727.515 490.112C713.323 465.365 691.54 430.948 684.5 422.085C676.688 412.186 642.144 375.467 636.753 371.323C632.572 367.985 625.971 366.834 624.651 369.021C624.321 369.596 630.372 378.229 638.073 388.243C645.774 398.373 654.685 410.689 657.876 415.754C660.956 420.818 665.467 427.84 667.777 431.293C673.938 440.847 680.869 452.358 688.57 466.4C700.342 487.58 742.808 578.974 754.909 609.132C757.44 615.463 760.63 623.175 762.06 626.398C766.131 635.491 769.871 644.585 771.191 648.268C776.142 662.081 800.235 745.303 817.618 808.841C821.358 822.424 826.529 840.265 829.169 848.553C834.34 864.437 836.65 873.416 841.271 895.746C854.363 959.055 862.834 1010.85 867.125 1052.87C869.655 1078.65 871.745 1107.2 870.975 1107.89C870.755 1108.12 867.125 1106.04 863.054 1103.17C858.984 1100.4 849.082 1093.61 841.161 1088.2C833.24 1082.79 826.419 1077.5 826.089 1076.58C825.099 1074.05 831.81 1069.67 840.171 1067.25C855.243 1062.88 853.923 1064.03 853.923 1055.4C853.923 1042.39 852.493 1030.77 843.911 975.169C834.56 914.393 821.358 860.754 797.485 785.935L791.764 768.094L785.163 766.712C764.26 762.338 746.548 754.051 724.655 738.281C709.583 727.346 696.601 716.411 696.601 714.569C696.601 713.994 697.481 712.382 698.581 711.001C700.452 708.584 701.332 708.469 715.304 708.699C723.445 708.699 736.317 709.044 743.798 709.274C751.719 709.62 757.11 709.389 756.449 708.814C755.899 708.238 751.059 706.397 745.558 704.67C733.126 700.756 711.563 691.778 700.342 685.908C692.421 681.764 668.547 667.145 648.745 654.369C644.564 651.721 637.853 646.887 633.893 643.779C625.641 637.218 604.188 616.729 604.188 615.463C604.188 615.002 608.809 613.391 614.42 612.01C639.723 605.449 678.009 591.521 682.079 587.377C683.619 585.765 684.94 582.773 685.27 580.01C685.82 575.521 685.71 575.291 682.299 574.37C680.319 573.794 671.518 574.025 661.616 574.83C643.574 576.212 582.405 576.787 575.254 575.636C572.174 575.061 567.993 571.953 557.102 562.284C549.401 555.377 540.16 546.514 536.639 542.601L530.148 535.464L541.59 534.658C547.861 534.198 562.273 533.507 573.604 533.047C590.437 532.471 594.287 532.011 594.727 530.63C595.387 529.018 593.187 528.903 576.465 529.709C566.013 530.054 548.631 530.515 537.959 530.63C527.178 530.63 518.377 530.86 518.377 530.975C518.377 531.09 526.408 538.457 536.199 547.205C546.1 555.953 557.542 566.543 561.833 570.687L569.534 578.399L613.54 579.665C637.743 580.24 659.526 580.586 661.946 580.356C676.798 578.744 680.099 578.744 680.099 580.931C680.099 582.082 679.439 583.463 678.779 584.154C674.598 587.607 621.681 606.139 607.929 608.787C603.858 609.592 600.338 610.859 600.118 611.549C599.238 613.966 606.059 626.283 611.009 631.117C623.661 643.549 639.833 655.865 663.157 670.829C681.309 682.455 709.693 696.498 728.506 702.943L737.857 706.166L718.604 705.591C696.601 705.015 694.071 705.706 693.521 711.807C693.191 715.03 694.291 716.641 702.102 725.274C707.053 730.569 715.084 737.821 720.034 741.274C731.256 749.216 765.581 766.942 778.122 771.432C786.374 774.309 787.804 775.23 788.904 778.223C795.615 795.834 812.007 848.898 815.528 864.092C825.429 906.681 836.65 965.846 840.721 997.04C843.251 1016.38 846.222 1048.38 846.222 1055.74V1060.58L833.9 1065.41C827.079 1068.18 820.368 1070.82 819.048 1071.4C817.178 1072.09 816.518 1073.35 816.518 1075.77C816.518 1078.19 817.288 1079.69 819.048 1080.61C823.009 1082.79 846.662 1099.6 861.294 1110.65L874.826 1120.78V1110.65C874.826 1088.66 871.855 1049.87 868.775 1031.57C867.895 1026.51 866.685 1016.15 866.025 1008.55C864.264 988.291 855.463 934.422 847.982 898.279C836.761 844.294 811.787 756.468 786.704 682.8C779.553 661.62 762.72 614.772 754.359 592.442C750.069 581.046 707.163 490.573 694.621 466.4C676.798 432.099 661.176 408.502 639.173 382.833C635.103 377.999 631.692 373.51 631.692 373.049C631.692 371.093 669.317 411.15 678.339 422.66C692.861 441.192 706.062 461.566 716.404 481.364C719.044 486.429 724.545 496.213 728.726 503.004C737.527 517.277 747.868 538.572 755.789 558.485C764.04 579.089 775.922 617.42 779.223 633.88C780.653 641.132 782.743 644.239 786.374 644.239C790.004 644.239 790.444 641.247 789.564 625.362C784.943 539.493 760.08 454.199 716.734 375.697C712.333 367.524 706.833 357.165 704.742 352.676C681.419 304.446 633.452 249.31 573.934 202.692C544.34 179.556 531.248 171.268 483.172 145.945C455.448 131.327 447.967 127.873 437.515 124.996C428.384 122.464 428.384 122.464 424.864 124.305ZM522.447 427.38C522.117 427.725 521.127 427.84 520.357 427.495C519.477 427.149 519.807 426.804 521.017 426.804C522.227 426.689 522.887 427.034 522.447 427.38Z" fill="white" stroke="white" stroke-width="5"></path>
</svg></svg></g></g><defs><clipPath id="SvgjsClipPath1060"><rect width="1000" height="1000" x="0" y="0" rx="500" ry="500"></rect></clipPath></defs></svg>